<?xml version="1.0" encoding="utf-8"?>
<!DOCTYPE svg PUBLIC "-//W3C//DTD SVG 20010904//EN" "http://www.w3.org/TR/2001/REC-SVG-20010904/DTD/svg10.dtd">
<svg version="1.0" xmlns="http://www.w3.org/2000/svg" width="448pt" height="512pt" viewBox="0 0 448 512" style="" preserveAspectRatio="xMidYMid meet">
<g fill="#000000FF" stroke="#000000FF">
<path d="M 250.361 64.055 C 229.098 66.949 217.160 91.384 227.197 111.468 C 228.472 114.020 249.079 135.414 283.335 169.750 L 337.458 224.000 181.266 224.000 C 25.369 224.000 25.065 224.004 19.499 226.086 C -6.494 235.811 -6.494 276.189 19.499 285.914 C 25.065 287.996 25.369 288.000 181.258 288.000 L 337.441 288.000 283.372 342.250 C 240.943 384.821 228.788 397.576 226.912 401.500 C 223.465 408.708 223.053 420.438 225.975 428.221 C 228.420 434.737 234.672 441.771 240.790 444.893 C 249.720 449.449 263.133 449.229 272.040 444.382 C 275.193 442.666 303.363 415.124 359.699 358.676 C 426.068 292.176 443.189 274.498 445.096 270.500 C 448.565 263.223 448.941 251.591 445.967 243.500 C 443.842 237.718 440.764 234.496 361.131 154.700 C 315.684 109.160 276.502 70.567 274.059 68.937 C 267.426 64.511 259.303 62.838 250.361 64.055 "/></g>
</svg>
