<?xml version="1.0" encoding="utf-8"?>
<!DOCTYPE svg PUBLIC "-//W3C//DTD SVG 20010904//EN" "http://www.w3.org/TR/2001/REC-SVG-20010904/DTD/svg10.dtd">
<svg version="1.0" xmlns="http://www.w3.org/2000/svg" width="448pt" height="512pt" viewBox="0 0 448 512" style="" preserveAspectRatio="xMidYMid meet">
<g fill="#000000FF" stroke="#000000FF">
<path d="M 186.361 64.055 C 183.534 64.440 178.992 65.968 176.268 67.451 C 172.713 69.386 147.873 93.634 88.301 153.324 C 21.932 219.824 4.811 237.502 2.904 241.500 C -0.563 248.771 -0.940 260.406 2.028 268.500 C 4.152 274.291 7.154 277.427 88.364 358.657 C 144.877 415.183 173.864 443.491 176.653 444.878 C 185.940 449.494 199.122 449.236 208.266 444.259 C 223.120 436.174 228.769 416.472 220.803 400.532 C 219.528 397.980 198.921 376.586 164.665 342.250 L 110.542 288.000 266.734 288.000 C 422.631 288.000 422.935 287.996 428.501 285.914 C 454.494 276.189 454.494 235.811 428.501 226.086 C 422.935 224.004 422.631 224.000 266.742 224.000 L 110.559 224.000 164.628 169.750 C 207.121 127.115 219.208 114.430 221.083 110.500 C 224.214 103.939 224.905 92.240 222.576 85.228 C 217.606 70.265 203.090 61.778 186.361 64.055 "/></g>
</svg>
