<?xml version="1.0" encoding="utf-8"?>
<!DOCTYPE svg PUBLIC "-//W3C//DTD SVG 20010904//EN" "http://www.w3.org/TR/2001/REC-SVG-20010904/DTD/svg10.dtd">
<svg version="1.0" xmlns="http://www.w3.org/2000/svg" width="512pt" height="512pt" viewBox="0 0 512 512" style="" preserveAspectRatio="xMidYMid meet">
<g fill="#000000FF" stroke="#000000FF">
<path d="M 223.500 1.528 C 177.345 7.541 135.005 25.189 98.000 53.835 C 86.312 62.884 66.419 82.471 56.703 94.500 C 29.057 128.725 10.771 169.093 2.968 213.128 C 0.200 228.745 -0.880 266.175 0.943 283.279 C 5.202 323.232 19.063 362.334 40.724 395.500 C 50.536 410.523 59.121 421.171 72.458 434.860 C 114.405 477.913 167.327 503.881 227.500 510.939 C 240.860 512.506 273.544 512.250 287.959 510.465 C 362.772 501.203 429.621 459.279 471.276 395.500 C 492.254 363.380 505.694 326.500 510.465 287.959 C 512.470 271.762 512.470 240.257 510.464 223.970 C 501.330 149.793 459.518 82.815 396.500 41.412 C 363.647 19.827 327.021 6.371 287.959 1.535 C 272.825 -0.339 237.855 -0.342 223.500 1.528 M 362.000 171.055 C 366.615 173.389 371.525 178.605 373.449 183.218 C 375.606 188.389 375.379 196.562 372.927 202.000 C 370.175 208.104 240.748 337.692 234.094 341.006 C 228.286 343.898 219.789 343.968 214.406 341.168 C 208.738 338.219 140.485 269.503 138.536 264.782 C 135.212 256.735 137.173 246.586 143.301 240.128 C 149.647 233.439 160.411 231.077 168.782 234.536 C 171.230 235.548 181.302 244.859 198.260 261.786 L 224.021 287.500 280.760 230.297 C 312.341 198.459 339.052 172.329 341.000 171.368 C 348.100 167.867 355.478 167.757 362.000 171.055 "/></g>
</svg>
